<svg id="Layer_1" data-name="Layer 1" xmlns="http://www.w3.org/2000/svg" xmlns:xlink="http://www.w3.org/1999/xlink" viewBox="0 0 1920 1080"><defs><style>.cls-1{fill:url(#linear-gradient);}</style><linearGradient id="linear-gradient" x1="1240.27" y1="91.82" x2="622.08" y2="921.19" gradientUnits="userSpaceOnUse"><stop offset="0" stop-color="#4473fe"/><stop offset="0.12" stop-color="#3064fe"/><stop offset="0.21" stop-color="#285efe"/><stop offset="0.42" stop-color="#285af1"/><stop offset="0.63" stop-color="#2649b3"/><stop offset="0.8" stop-color="#253773"/><stop offset="0.85" stop-color="#19264f"/><stop offset="0.92" stop-color="#0c1124"/><stop offset="0.97" stop-color="#03050a"/><stop offset="1"/></linearGradient></defs><title>Fat-Bear-Design-1</title><path class="cls-1" d="M1080.5-.5a770.1,770.1,0,0,0,65.21,74.79c31.15,31.71,69.56,70.27,114.09,81.45,21.37,5.36,44.41,4,66.14,2,27.76-2.52,55.2-7.6,82.85-11,63.74-7.86,127.48-15.89,191.45-21.74,31.15-2.85,62.44-5.53,93.72-6.44,34.54-1,69.33-.56,103.49,5.14,35.16,5.88,67.38,19.1,100.07,32.8,6.94,2.91,16,5.63,21.78,10.78a.69.69,0,0,1,.2.25v770s-265,19-643,19-1277,204-1277-41V-.5Z"/></svg>